{
  "accessors": [
    {
      "bufferView": 2,
      "componentType": 5126,
      "count": 65532,
      "max": [
        123.50592041015625,
        84.9971694946289,
        40.393245697021484
      ],
      "min": [
        -119.77937316894531,
        12.02108383178711,
        -39.97639083862305
      ],
      "type": "VEC3"
    },
    {
      "bufferView": 2,
      "byteOffset": 786384,
      "componentType": 5126,
      "count": 65532,
      "max": [
        1.0,
        1.0,
        1.0
      ],
      "min": [
        -1.0,
        -1.0,
        -0.9999954104423523
      ],
      "type": "VEC3"
    },
    {
      "bufferView": 3,
      "componentType": 5126,
      "count": 65532,
      "max": [
        1.0,
        1.0,
        0.9999988079071045,
        1.0
      ],
      "min": [
        -0.9990720152854919,
        -1.0,
        -0.999999463558197,
        -1.0
      ],
      "type": "VEC4"
    },
    {
      "bufferView": 1,
      "componentType": 5126,
      "count": 65532,
      "max": [
        0.9588634371757507,
        0.9210934042930603
      ],
      "min": [
        0.02113962173461914,
        0.042175501585006714
      ],
      "type": "VEC2"
    },
    {
      "bufferView": 0,
      "componentType": 5125,
      "count": 338616,
      "type": "SCALAR"
    },
    {
      "bufferView": 2,
      "byteOffset": 1572768,
      "componentType": 5126,
      "count": 65532,
      "max": [
        123.45634460449219,
        85.04639434814453,
        37.727718353271484
      ],
      "min": [
        -121.90676879882813,
        34.37101745605469,
        -40.02606964111328
      ],
      "type": "VEC3"
    },
    {
      "bufferView": 2,
      "byteOffset": 2359152,
      "componentType": 5126,
      "count": 65532,
      "max": [
        0.9999984502792358,
        0.999993085861206,
        0.9999983906745911
      ],
      "min": [
        -0.9999949336051941,
        -0.9999873042106628,
        -0.9999240040779114
      ],
      "type": "VEC3"
    },
    {
      "bufferView": 3,
      "byteOffset": 1048512,
      "componentType": 5126,
      "count": 65532,
      "max": [
        1.0,
        0.9992687702178955,
        0.999993622303009,
        1.0
      ],
      "min": [
        -0.9975138902664185,
        -0.9991396069526672,
        -0.999977171421051,
        1.0
      ],
      "type": "VEC4"
    },
    {
      "bufferView": 1,
      "byteOffset": 524256,
      "componentType": 5126,
      "count": 65532,
      "max": [
        0.9454411268234253,
        0.9513932466506958
      ],
      "min": [
        0.1450468748807907,
        0.6458510756492615
      ],
      "type": "VEC2"
    },
    {
      "bufferView": 0,
      "byteOffset": 1354464,
      "componentType": 5125,
      "count": 341685,
      "type": "SCALAR"
    },
    {
      "bufferView": 2,
      "byteOffset": 3145536,
      "componentType": 5126,
      "count": 65532,
      "max": [
        119.37726593017578,
        85.02401733398438,
        43.267215728759766
      ],
      "min": [
        -123.50653839111328,
        -0.11537478864192963,
        -39.988197326660156
      ],
      "type": "VEC3"
    },
    {
      "bufferView": 2,
      "byteOffset": 3931920,
      "componentType": 5126,
      "count": 65532,
      "max": [
        1.0,
        1.0,
        1.0
      ],
      "min": [
        -1.0,
        -1.0,
        -1.0
      ],
      "type": "VEC3"
    },
    {
      "bufferView": 3,
      "byteOffset": 2097024,
      "componentType": 5126,
      "count": 65532,
      "max": [
        1.0,
        1.0,
        1.0,
        1.0
      ],
      "min": [
        -0.9999997615814209,
        -0.9998176097869873,
        -0.999999463558197,
        -1.0
      ],
      "type": "VEC4"
    },
    {
      "bufferView": 1,
      "byteOffset": 1048512,
      "componentType": 5126,
      "count": 65532,
      "max": [
        0.9941692352294922,
        0.9516232013702393
      ],
      "min": [
        0.009970934130251408,
        0.003799131140112877
      ],
      "type": "VEC2"
    },
    {
      "bufferView": 0,
      "byteOffset": 2721204,
      "componentType": 5125,
      "count": 345879,
      "type": "SCALAR"
    },
    {
      "bufferView": 2,
      "byteOffset": 4718304,
      "componentType": 5126,
      "count": 44963,
      "max": [
        121.2421646118164,
        84.98713684082031,
        39.78908920288086
      ],
      "min": [
        -123.32971954345703,
        33.59419250488281,
        -39.988197326660156
      ],
      "type": "VEC3"
    },
    {
      "bufferView": 2,
      "byteOffset": 5257860,
      "componentType": 5126,
      "count": 44963,
      "max": [
        1.0,
        0.9999618530273438,
        0.9999992251396179
      ],
      "min": [
        -1.0,
        -0.9999915957450867,
        -0.9999982118606567
      ],
      "type": "VEC3"
    },
    {
      "bufferView": 3,
      "byteOffset": 3145536,
      "componentType": 5126,
      "count": 44963,
      "max": [
        0.9999991059303284,
        1.0,
        0.9996103644371033,
        1.0
      ],
      "min": [
        -0.9963331818580627,
        -1.0,
        -0.9999997615814209,
        -1.0
      ],
      "type": "VEC4"
    },
    {
      "bufferView": 1,
      "byteOffset": 1572768,
      "componentType": 5126,
      "count": 44963,
      "max": [
        0.8343712687492371,
        0.9216785430908203
      ],
      "min": [
        0.010637159459292889,
        0.6437987089157104
      ],
      "type": "VEC2"
    },
    {
      "bufferView": 0,
      "byteOffset": 4104720,
      "componentType": 5125,
      "count": 227439,
      "type": "SCALAR"
    }
  ],
  "asset": {
    "extras": {
      "author": "JoRCS (https://sketchfab.com/JoRCS)",
      "license": "CC-BY-NC-4.0 (http://creativecommons.org/licenses/by-nc/4.0/)",
      "source": "https://sketchfab.com/3d-models/chesterfield-sofa-dc8935c21566496d903c4f09135ce6bd",
      "title": "Chesterfield sofa"
    },
    "generator": "Sketchfab-15.20.0",
    "version": "2.0"
  },
  "bufferViews": [
    {
      "buffer": 0,
      "byteLength": 5014476,
      "name": "floatBufferViews",
      "target": 34963
    },
    {
      "buffer": 0,
      "byteLength": 1932472,
      "byteOffset": 5014476,
      "byteStride": 8,
      "name": "floatBufferViews",
      "target": 34962
    },
    {
      "buffer": 0,
      "byteLength": 5797416,
      "byteOffset": 6946948,
      "byteStride": 12,
      "name": "floatBufferViews",
      "target": 34962
    },
    {
      "buffer": 0,
      "byteLength": 3864944,
      "byteOffset": 12744364,
      "byteStride": 16,
      "name": "floatBufferViews",
      "target": 34962
    }
  ],
  "buffers": [
    {
      "byteLength": 16609308,
      "uri": "scene.bin"
    }
  ],
  "images": [
    {
      "uri": "textures/lambert1_baseColor.png"
    },
    {
      "uri": "textures/lambert1_metallicRoughness.png"
    },
    {
      "uri": "textures/lambert1_normal.png"
    }
  ],
  "materials": [
    {
      "doubleSided": true,
      "name": "lambert1",
      "normalTexture": {
        "index": 2
      },
      "pbrMetallicRoughness": {
        "baseColorTexture": {
          "index": 0
        },
        "metallicFactor": 0.0,
        "metallicRoughnessTexture": {
          "index": 1
        }
      }
    }
  ],
  "meshes": [
    {
      "name": "chesterfield_sofa_mesh_lambert1_0",
      "primitives": [
        {
          "attributes": {
            "NORMAL": 1,
            "POSITION": 0,
            "TANGENT": 2,
            "TEXCOORD_0": 3
          },
          "indices": 4,
          "material": 0,
          "mode": 4
        }
      ]
    },
    {
      "name": "chesterfield_sofa_mesh_lambert1_0",
      "primitives": [
        {
          "attributes": {
            "NORMAL": 6,
            "POSITION": 5,
            "TANGENT": 7,
            "TEXCOORD_0": 8
          },
          "indices": 9,
          "material": 0,
          "mode": 4
        }
      ]
    },
    {
      "name": "chesterfield_sofa_mesh_lambert1_0",
      "primitives": [
        {
          "attributes": {
            "NORMAL": 11,
            "POSITION": 10,
            "TANGENT": 12,
            "TEXCOORD_0": 13
          },
          "indices": 14,
          "material": 0,
          "mode": 4
        }
      ]
    },
    {
      "name": "chesterfield_sofa_mesh_lambert1_0",
      "primitives": [
        {
          "attributes": {
            "NORMAL": 16,
            "POSITION": 15,
            "TANGENT": 17,
            "TEXCOORD_0": 18
          },
          "indices": 19,
          "material": 0,
          "mode": 4
        }
      ]
    }
  ],
  "nodes": [
    {
      "children": [
        1
      ],
      "matrix": [
        1.0,
        0.0,
        0.0,
        0.0,
        0.0,
        2.220446049250313e-16,
        -1.0,
        0.0,
        0.0,
        1.0,
        2.220446049250313e-16,
        0.0,
        0.0,
        0.0,
        0.0,
        1.0
      ],
      "name": "Sketchfab_model"
    },
    {
      "children": [
        2
      ],
      "matrix": [
        0.009999999776482582,
        0.0,
        0.0,
        0.0,
        0.0,
        0.0,
        0.009999999776482582,
        0.0,
        0.0,
        -0.009999999776482582,
        0.0,
        0.0,
        0.0,
        0.0,
        0.0,
        1.0
      ],
      "name": "8a3726b43fea42578a94f525aa64f45f.fbx"
    },
    {
      "children": [
        3
      ],
      "name": "RootNode"
    },
    {
      "children": [
        4,
        5,
        6,
        7
      ],
      "name": "chesterfield_sofa_mesh"
    },
    {
      "mesh": 0,
      "name": "chesterfield_sofa_mesh_lambert1_0"
    },
    {
      "mesh": 1,
      "name": "chesterfield_sofa_mesh_lambert1_0"
    },
    {
      "mesh": 2,
      "name": "chesterfield_sofa_mesh_lambert1_0"
    },
    {
      "mesh": 3,
      "name": "chesterfield_sofa_mesh_lambert1_0"
    }
  ],
  "samplers": [
    {
      "magFilter": 9729,
      "minFilter": 9987,
      "wrapS": 10497,
      "wrapT": 10497
    }
  ],
  "scene": 0,
  "scenes": [
    {
      "name": "Sketchfab_Scene",
      "nodes": [
        0
      ]
    }
  ],
  "textures": [
    {
      "sampler": 0,
      "source": 0
    },
    {
      "sampler": 0,
      "source": 1
    },
    {
      "sampler": 0,
      "source": 2
    }
  ]
}
